<?xml version="1.0" encoding="UTF-8"?>
<svg id="Capa_2" data-name="Capa 2" xmlns="http://www.w3.org/2000/svg" viewBox="0 0 313.14 63.63">
  <defs>
    <style>
      .cls-1 {
        fill: #2e72b8;
      }

      .cls-2 {
        fill: #6d358b;
      }

      .cls-3 {
        fill: #fbc02d;
      }

      .cls-4 {
        fill: #388e3c;
      }

      .cls-5 {
        fill: #1786c8;
      }

      .cls-6 {
        fill: #d3302f;
      }

      .cls-7 {
        fill: #5d4037;
      }
    </style>
  </defs>
  <g id="Capa_1-2" data-name="Capa 1">
    <g>
      <path class="cls-6" d="M26.22,10.07c1.2,2,8.47,20.15,8.47,20.15,0,0,1.68-8.07,3.12-13.59,1.92-7.51,3.52-9.43,8.07-9.43,7.35,0,12.39,1.6,14.23,5.6,1.76,3.92,7.59,23.82,7.59,38.21,0,10.63-12.31,11.11-15.35,11.11s-3.84-1.28-3.84-2.8,1.52-5.84,1.52-12.07-1.2-13.99-2.72-13.99-4.32,14.23-4.32,20.78c0,5.68-3.12,6.24-6.24,6.24-5.52,0-9.51-1.04-9.83-4.4-.72-8.07-3.12-19.03-5.2-19.03s-2,5.68-2,10.95c0,8.63,1.44,9.99,1.44,12.47,0,2.32-2.88,3.36-7.03,3.36-8.63,0-14.15-2.32-14.15-8.07,0-8.07,3.04-32.46,4.96-39.25,1.6-5.76,1.92-6.88,5.28-7.83,3.28-.88,8.39-1.52,10.95-1.52,2.24,0,3.76,1.04,5.04,3.12Z"/>
      <path class="cls-3" d="M79.3,0c5.28,0,9.59,4,9.59,9.27s-4.32,9.11-9.59,9.11-9.51-3.84-9.51-9.11S74.03,0,79.3,0ZM90.58,25.82c0,3.04-2.08,9.11-2.08,17.35,0,5.84,1.6,11.03,1.6,15.03,0,2.48-1.92,4.8-6.48,4.8-7.11,0-13.19-2.96-13.19-6.08s1.84-9.67,1.84-15.59-2.08-8.71-2.08-12.15c0-4.24,8.31-7.83,15.11-7.83,3.2,0,5.28,1.52,5.28,4.48Z"/>
      <path class="cls-4" d="M126.71,29.18c-1.68,0-2.24-.56-2.56-1.68-.64-2.4-1.92-4.32-4.08-4.32-2.48,0-5.52,3.04-5.52,11.59,0,9.43,4.08,13.99,6.96,13.99,2.32,0,3.76-2,3.76-3.68,0-1.44-.96-2.48-2.24-3.04-1.52-.64-2.56-1.84-2.56-3.76,0-1.36.56-2.16,2.48-3.6,1.76-1.36,7.75-3.28,12.31-3.28,3.84,0,6.96,3.2,6.96,8.71,0,13.11-8.07,22.62-22.86,22.62s-26.86-9.19-26.86-25.98c0-18.23,11.19-30.3,27.9-30.3,12.79,0,18.95,7.59,18.95,11.91s-9.03,10.79-12.63,10.79Z"/>
      <path class="cls-1" d="M163.89,24.38c1.12,0,5.28-4.32,10.55-4.32,5.83,0,9.99,6,9.99,9.91,0,4.64-6.16,9.83-12.23,9.83-1.68,0-2.72-.88-2.72-2.4,0-2.4-.72-3.84-2.32-3.84-1.2,0-2,.88-2,2.64,0,6.56,1.84,12.15,1.84,19.99,0,4.4-2.4,7.11-6.56,7.11-6.88,0-14.07-2.72-14.07-6.16,0-2.56.72-6.16.72-8.87,0-15.75-3.36-15.59-3.36-19.03,0-3.92,11.67-8.23,15.27-8.23,3.12,0,3.68,3.36,4.88,3.36Z"/>
      <path class="cls-2" d="M222.72,33.5c0,8.63-1.36,12.15-1.36,15.35,0,5.52,1.92,5.44,1.92,7.11,0,2.4-6.79,6.72-11.35,6.72-3.68,0-4.64-3.2-5.52-3.2-.96,0-5.52,3.04-11.35,3.04-8.23,0-12.55-4.56-12.55-10.31,0-15.83,23.42-14.31,23.42-18.71,0-.88-.8-1.68-2.48-1.68-7.12,0-12.15,5.68-14.71,5.68-2.08,0-2.72-2.8-2.72-5.44,0-1.84.24-3.6.72-4.4,1.84-4.08,9.43-7.67,19.75-7.67,8.47,0,16.23,4.88,16.23,13.51ZM197.38,50.12c0,1.52.88,2.24,2.48,2.24,2.16,0,6.4-3.84,6.4-5.92,0-1.04-.32-1.84-1.12-1.84-2.96,0-7.75,3.44-7.75,5.52Z"/>
      <path class="cls-7" d="M270.85,7.51c0,8.07-2.64,22.7-2.64,33.97,0,8.87,3.68,9.11,3.68,12.15s-7.83,8.63-12.95,8.63c-3.2,0-3.68-3.68-5.28-3.68s-4.24,3.6-12.55,3.6c-9.03,0-15.59-9.11-15.59-18.63,0-14.07,10.95-22.22,18.47-22.22,5.12,0,7.67,2.16,8.71,2.16.72,0,1.2-.56,1.2-2.08,0-5.44-2.8-10.47-2.8-13.51,0-2.72,8.95-7.03,13.83-7.03,4,0,5.92,2.24,5.92,6.64ZM248.39,47.56c2.48,0,4.48-2.24,4.48-6,0-4.48-1.6-6-3.68-6-2.4,0-4.88,3.36-4.88,7.11,0,2.88,1.52,4.88,4.08,4.88Z"/>
      <path class="cls-5" d="M312.34,34.77c0,9.91-22.14,8.31-22.14,11.75,0,1.52,1.36,3.04,5.52,3.04,5.36,0,8.79-4.64,10.95-4.64,2.56.24,6.48,4.72,6.48,7.83,0,3.44-8.15,9.67-18.79,9.67-11.99,0-21.66-7.75-21.66-20.31s9.51-21.82,22.06-21.82c11.11,0,17.59,6.32,17.59,14.47ZM295.39,30.94c-3.68,0-7.27,2.32-7.27,4.56,0,.48.48,1.2,1.28,1.2,3.04,0,8.95-2.32,8.95-3.6,0-1.2-1.12-2.16-2.96-2.16Z"/>
    </g>
  </g>
</svg>